<svg width="960" height="400" viewBox="0 0 960 400" fill="none" xmlns="http://www.w3.org/2000/svg">
<path d="M833.234 268.561V158.052H852.308V171.343H853.433C854.433 169.389 855.844 167.314 857.666 165.116C859.487 162.884 861.952 160.982 865.059 159.413C868.167 157.808 872.131 157.006 876.953 157.006C883.311 157.006 889.044 158.593 894.152 161.767C899.295 164.907 903.367 169.564 906.367 175.738C909.403 181.877 910.921 189.412 910.921 198.342C910.921 207.167 909.439 214.667 906.474 220.841C903.51 227.016 899.474 231.725 894.366 234.969C889.258 238.213 883.472 239.835 877.007 239.835C872.292 239.835 868.381 239.068 865.274 237.533C862.166 235.998 859.666 234.149 857.773 231.986C855.915 229.789 854.469 227.713 853.433 225.76H852.629V268.561H833.234ZM852.254 198.237C852.254 203.435 853.004 207.987 854.505 211.894C856.04 215.801 858.237 218.853 861.094 221.051C863.988 223.213 867.488 224.295 871.596 224.295C875.882 224.295 879.471 223.179 882.365 220.946C885.258 218.679 887.437 215.592 888.901 211.685C890.401 207.743 891.151 203.26 891.151 198.237C891.151 193.249 890.419 188.819 888.955 184.947C887.49 181.075 885.311 178.04 882.418 175.843C879.525 173.645 875.918 172.546 871.596 172.546C867.452 172.546 863.934 173.61 861.041 175.738C858.148 177.866 855.951 180.848 854.451 184.685C852.986 188.522 852.254 193.04 852.254 198.237Z" fill="#0D47A1"/>
<path d="M780.347 239.992C772.31 239.992 765.345 238.265 759.452 234.812C753.558 231.359 748.986 226.527 745.736 220.318C742.521 214.109 740.914 206.853 740.914 198.551C740.914 190.249 742.521 182.976 745.736 176.732C748.986 170.488 753.558 165.639 759.452 162.186C765.345 158.733 772.31 157.006 780.347 157.006C788.383 157.006 795.348 158.733 801.242 162.186C807.135 165.639 811.689 170.488 814.904 176.732C818.154 182.976 819.78 190.249 819.78 198.551C819.78 206.853 818.154 214.109 814.904 220.318C811.689 226.527 807.135 231.359 801.242 234.812C795.348 238.265 788.383 239.992 780.347 239.992ZM780.454 224.818C784.812 224.818 788.455 223.649 791.384 221.312C794.313 218.94 796.491 215.766 797.92 211.789C799.385 207.813 800.117 203.383 800.117 198.499C800.117 193.58 799.385 189.133 797.92 185.156C796.491 181.145 794.313 177.953 791.384 175.581C788.455 173.209 784.812 172.023 780.454 172.023C775.989 172.023 772.275 173.209 769.31 175.581C766.381 177.953 764.184 181.145 762.72 185.156C761.291 189.133 760.577 193.58 760.577 198.499C760.577 203.383 761.291 207.813 762.72 211.789C764.184 215.766 766.381 218.94 769.31 221.312C772.275 223.649 775.989 224.818 780.454 224.818Z" fill="#0D47A1"/>
<path d="M674.403 191.318V238.41H655.008V131.25H673.974V171.697H674.939C676.867 167.162 679.85 163.586 683.886 160.97C687.958 158.319 693.137 156.994 699.423 156.994C705.138 156.994 710.121 158.162 714.371 160.499C718.622 162.836 721.908 166.255 724.229 170.755C726.587 175.255 727.766 180.749 727.766 187.237V238.41H708.371V190.167C708.371 184.76 706.942 180.557 704.084 177.557C701.263 174.522 697.298 173.005 692.19 173.005C688.761 173.005 685.69 173.737 682.975 175.202C680.296 176.633 678.189 178.708 676.653 181.429C675.153 184.15 674.403 187.446 674.403 191.318Z" fill="#0D47A1"/>
<path d="M620.526 160.729C620.026 156.16 617.918 152.602 614.204 150.055C610.525 147.509 605.738 146.235 599.845 146.235C595.702 146.235 592.148 146.846 589.183 148.067C586.219 149.288 583.95 150.945 582.379 153.038C580.807 155.131 580.004 157.52 579.968 160.206C579.968 162.439 580.486 164.375 581.522 166.014C582.593 167.654 584.04 169.049 585.861 170.2C587.683 171.316 589.701 172.258 591.916 173.025C594.13 173.793 596.362 174.438 598.613 174.961L608.9 177.473C613.043 178.415 617.025 179.688 620.847 181.293C624.705 182.897 628.152 184.92 631.188 187.362C634.259 189.804 636.688 192.752 638.474 196.205C640.26 199.658 641.153 203.705 641.153 208.344C641.153 214.623 639.51 220.152 636.224 224.931C632.938 229.675 628.187 233.39 621.972 236.076C615.793 238.727 608.31 240.053 599.524 240.053C590.987 240.053 583.575 238.762 577.289 236.181C571.038 233.599 566.145 229.832 562.609 224.879C559.108 219.925 557.215 213.891 556.93 206.775H576.485C576.771 210.507 577.95 213.612 580.021 216.088C582.093 218.565 584.79 220.414 588.112 221.635C591.469 222.856 595.219 223.466 599.363 223.466C603.685 223.466 607.471 222.838 610.721 221.582C614.007 220.292 616.579 218.513 618.436 216.245C620.294 213.943 621.24 211.257 621.276 208.187C621.24 205.397 620.401 203.094 618.758 201.281C617.115 199.432 614.811 197.897 611.846 196.676C608.917 195.42 605.488 194.304 601.559 193.327L589.076 190.188C580.039 187.92 572.896 184.484 567.645 179.88C562.43 175.241 559.823 169.084 559.823 161.409C559.823 155.096 561.573 149.567 565.073 144.823C568.609 140.079 573.414 136.399 579.486 133.782C585.558 131.131 592.433 129.806 600.113 129.806C607.899 129.806 614.722 131.131 620.579 133.782C626.473 136.399 631.098 140.044 634.456 144.718C637.813 149.357 639.546 154.695 639.653 160.729H620.526Z" fill="#0D47A1"/>
<path d="M318.937 239.992C310.686 239.992 303.561 238.318 297.56 234.969C291.595 231.585 287.005 226.806 283.791 220.632C280.576 214.423 278.969 207.115 278.969 198.708C278.969 190.441 280.576 183.185 283.791 176.941C287.041 170.662 291.577 165.779 297.399 162.291C303.221 158.767 310.061 157.006 317.919 157.006C322.991 157.006 327.778 157.808 332.278 159.413C336.814 160.982 340.815 163.424 344.279 166.738C347.78 170.052 350.53 174.273 352.53 179.401C354.53 184.494 355.53 190.563 355.53 197.609V203.417H288.077V190.65H336.939C336.904 187.023 336.1 183.796 334.528 180.97C332.957 178.11 330.76 175.86 327.938 174.221C325.152 172.581 321.902 171.761 318.187 171.761C314.222 171.761 310.74 172.703 307.74 174.587C304.739 176.436 302.4 178.877 300.721 181.912C299.078 184.912 298.239 188.209 298.203 191.801V202.947C298.203 207.621 299.078 211.632 300.828 214.981C302.578 218.295 305.025 220.841 308.168 222.62C311.311 224.365 314.99 225.237 319.205 225.237C322.027 225.237 324.581 224.853 326.867 224.085C329.153 223.283 331.135 222.115 332.814 220.58C334.493 219.045 335.761 217.144 336.618 214.876L354.727 216.865C353.584 221.539 351.405 225.62 348.19 229.109C345.012 232.562 340.94 235.248 335.975 237.167C331.01 239.05 325.331 239.992 318.937 239.992Z" fill="#0D47A1"/>
<path d="M273.359 158.048V172.699H224.711V158.048H273.359ZM236.873 238.418V150.461C236.873 145.055 238.016 140.555 240.302 136.962C242.624 133.369 245.731 130.683 249.624 128.904C253.518 127.125 257.839 126.235 262.59 126.235C265.947 126.235 268.93 126.497 271.537 127.02C274.145 127.543 276.074 128.014 277.324 128.433L273.466 143.084C272.645 142.84 271.609 142.595 270.359 142.351C269.109 142.072 267.716 141.933 266.18 141.933C262.572 141.933 260.018 142.787 258.518 144.497C257.054 146.171 256.321 148.578 256.321 151.717V238.418H236.873Z" fill="#0D47A1"/>
<path d="M171.765 240.044C166.55 240.044 161.853 239.137 157.674 237.324C153.531 235.475 150.245 232.754 147.816 229.161C145.423 225.568 144.227 221.138 144.227 215.871C144.227 211.336 145.084 207.586 146.798 204.621C148.513 201.656 150.852 199.284 153.817 197.505C156.781 195.726 160.121 194.383 163.836 193.476C167.586 192.534 171.462 191.854 175.462 191.435C180.284 190.947 184.195 190.511 187.195 190.127C190.196 189.708 192.375 189.081 193.732 188.243C195.125 187.371 195.821 186.028 195.821 184.214V183.901C195.821 179.959 194.625 176.907 192.232 174.744C189.839 172.581 186.392 171.5 181.891 171.5C177.141 171.5 173.373 172.511 170.587 174.534C167.836 176.558 165.979 178.947 165.014 181.703L146.905 179.191C148.334 174.308 150.692 170.226 153.978 166.947C157.264 163.634 161.282 161.157 166.032 159.517C170.783 157.843 176.034 157.006 181.784 157.006C185.749 157.006 189.696 157.459 193.625 158.366C197.554 159.273 201.143 160.773 204.394 162.866C207.644 164.924 210.251 167.732 212.216 171.29C214.216 174.848 215.216 179.296 215.216 184.633V238.422H196.571V227.382H195.928C194.75 229.614 193.089 231.707 190.946 233.661C188.838 235.579 186.177 237.132 182.963 238.318C179.784 239.469 176.051 240.044 171.765 240.044ZM176.801 226.126C180.695 226.126 184.07 225.376 186.928 223.876C189.785 222.341 191.982 220.318 193.518 217.807C195.089 215.295 195.875 212.557 195.875 209.592V200.121C195.268 200.609 194.232 201.063 192.767 201.481C191.339 201.9 189.731 202.266 187.945 202.58C186.16 202.894 184.392 203.173 182.641 203.417C180.891 203.662 179.373 203.871 178.087 204.045C175.194 204.429 172.605 205.057 170.319 205.929C168.033 206.801 166.229 208.022 164.907 209.592C163.586 211.127 162.925 213.115 162.925 215.557C162.925 219.045 164.229 221.679 166.836 223.458C169.444 225.237 172.765 226.126 176.801 226.126Z" fill="#0D47A1"/>
<path d="M113.596 160.729C113.096 156.16 110.989 152.602 107.274 150.055C103.595 147.509 98.8088 146.235 92.9153 146.235C88.772 146.235 85.218 146.846 82.2534 148.067C79.2888 149.288 77.0207 150.945 75.4491 153.038C73.8775 155.131 73.0739 157.52 73.0382 160.206C73.0382 162.439 73.5561 164.375 74.5919 166.014C75.6634 167.654 77.11 169.049 78.9316 170.2C80.7533 171.316 82.7713 172.258 84.9859 173.025C87.2004 173.793 89.4328 174.438 91.683 174.961L101.97 177.473C106.113 178.415 110.096 179.688 113.918 181.293C117.775 182.897 121.222 184.92 124.258 187.362C127.33 189.804 129.758 192.752 131.544 196.205C133.33 199.658 134.223 203.705 134.223 208.344C134.223 214.623 132.58 220.152 129.294 224.931C126.008 229.675 121.258 233.39 115.043 236.076C108.863 238.727 101.38 240.053 92.5938 240.053C84.0572 240.053 76.6457 238.762 70.3593 236.181C64.1086 233.599 59.2153 229.832 55.6792 224.879C52.1788 219.925 50.2857 213.891 50 206.775H69.5557C69.8414 210.507 71.0201 213.612 73.0917 216.088C75.1634 218.565 77.8601 220.414 81.1819 221.635C84.5394 222.856 88.2898 223.466 92.4331 223.466C96.755 223.466 100.541 222.838 103.791 221.582C107.078 220.292 109.649 218.513 111.507 216.245C113.364 213.943 114.31 211.257 114.346 208.187C114.31 205.397 113.471 203.094 111.828 201.281C110.185 199.432 107.881 197.897 104.917 196.676C101.988 195.42 98.5587 194.304 94.6297 193.327L82.1463 190.188C73.1096 187.92 65.966 184.484 60.7154 179.88C55.5006 175.241 52.8932 169.084 52.8932 161.409C52.8932 155.096 54.6434 149.567 58.1437 144.823C61.6798 140.079 66.4839 136.399 72.556 133.782C78.628 131.131 85.5038 129.806 93.1832 129.806C100.97 129.806 107.792 131.131 113.65 133.782C119.543 136.399 124.169 140.044 127.526 144.718C130.884 149.357 132.616 154.695 132.723 160.729H113.596Z" fill="#0D47A1"/>
<path fill-rule="evenodd" clip-rule="evenodd" d="M456.405 75.3154C478.666 75.3154 496.884 91.5774 498.333 112.146L498.308 112.148L495.664 130.107C498.534 125.418 504.225 117.822 510.675 112.799H522.179C530.665 112.799 537.176 120.127 535.956 128.302L520.239 233.552C519.244 240.214 513.378 245.155 506.463 245.155H407.275C400.344 245.155 394.469 240.191 393.493 233.51L378.118 128.261C376.925 120.098 383.432 112.799 391.9 112.799H401.997C408.447 117.822 414.137 125.418 417.008 130.107L414.443 112.682C415.609 91.8611 433.95 75.3158 456.405 75.3154ZM456.489 86.9982C472.353 86.9986 485.347 98.3742 486.484 112.799H426.493C427.629 98.374 440.625 86.9982 456.489 86.9982ZM455.711 228.013C482.093 228.013 503.479 207.191 503.479 181.506C503.479 155.82 482.093 134.998 455.711 134.998C429.33 134.998 407.943 155.82 407.943 181.506C407.943 207.191 429.33 228.013 455.711 228.013Z" fill="#0D47A1"/>
<path d="M447.558 207.68L421.81 182.32L431.345 172.935L447.558 188.942L480.848 156.143L490.384 165.528L447.558 207.68Z" fill="#0D47A1"/>
<path d="M743.403 319.338C741.429 319.338 739.65 318.986 738.068 318.283C736.499 317.566 735.255 316.512 734.336 315.119C733.43 313.726 732.977 312.008 732.977 309.966C732.977 308.208 733.301 306.755 733.95 305.605C734.599 304.456 735.485 303.536 736.608 302.846C737.73 302.157 738.994 301.636 740.401 301.285C741.821 300.919 743.288 300.656 744.803 300.493C746.628 300.304 748.109 300.135 749.245 299.986C750.381 299.824 751.206 299.581 751.72 299.256C752.247 298.918 752.511 298.397 752.511 297.694V297.572C752.511 296.044 752.058 294.861 751.152 294.023C750.246 293.184 748.941 292.765 747.237 292.765C745.438 292.765 744.012 293.157 742.957 293.941C741.915 294.726 741.212 295.652 740.847 296.72L733.991 295.747C734.532 293.854 735.424 292.271 736.668 291C737.913 289.715 739.434 288.755 741.232 288.12C743.031 287.471 745.019 287.146 747.196 287.146C748.697 287.146 750.192 287.322 751.679 287.673C753.167 288.025 754.526 288.607 755.756 289.418C756.987 290.216 757.974 291.304 758.718 292.684C759.475 294.063 759.854 295.787 759.854 297.856V318.709H752.795V314.429H752.551C752.105 315.295 751.476 316.106 750.665 316.863C749.867 317.607 748.86 318.209 747.643 318.669C746.439 319.115 745.026 319.338 743.403 319.338ZM745.31 313.942C746.784 313.942 748.062 313.651 749.144 313.07C750.225 312.475 751.057 311.691 751.639 310.717C752.234 309.743 752.531 308.682 752.531 307.532V303.861C752.301 304.05 751.909 304.226 751.355 304.388C750.814 304.55 750.205 304.692 749.529 304.814C748.853 304.936 748.183 305.044 747.521 305.139C746.858 305.233 746.283 305.314 745.797 305.382C744.701 305.531 743.721 305.774 742.855 306.112C741.99 306.45 741.307 306.924 740.807 307.532C740.306 308.127 740.056 308.898 740.056 309.845C740.056 311.197 740.55 312.218 741.537 312.908C742.524 313.597 743.782 313.942 745.31 313.942Z" fill="#0D47A1"/>
<path d="M708.624 308.933L708.603 300.069H709.78L720.977 287.553H729.558L715.784 302.888H714.263L708.624 308.933ZM701.93 318.71V277.167H709.273V318.71H701.93ZM721.484 318.71L711.342 304.531L716.291 299.359L730.268 318.71H721.484Z" fill="#0D47A1"/>
<path d="M695.2 295.787L688.506 296.518C688.317 295.841 687.986 295.206 687.512 294.611C687.053 294.016 686.431 293.536 685.646 293.171C684.862 292.805 683.902 292.623 682.766 292.623C681.238 292.623 679.953 292.954 678.912 293.617C677.884 294.279 677.377 295.138 677.39 296.193C677.377 297.099 677.708 297.836 678.384 298.404C679.074 298.972 680.21 299.439 681.792 299.804L687.107 300.94C690.055 301.575 692.246 302.583 693.679 303.962C695.126 305.341 695.856 307.147 695.87 309.378C695.856 311.339 695.282 313.07 694.146 314.571C693.023 316.059 691.461 317.222 689.46 318.06C687.458 318.898 685.159 319.318 682.563 319.318C678.749 319.318 675.68 318.52 673.354 316.924C671.028 315.315 669.642 313.077 669.195 310.21L676.356 309.52C676.68 310.927 677.37 311.988 678.425 312.705C679.48 313.422 680.852 313.78 682.543 313.78C684.287 313.78 685.687 313.422 686.742 312.705C687.81 311.988 688.344 311.102 688.344 310.048C688.344 309.155 687.999 308.418 687.31 307.837C686.633 307.255 685.579 306.809 684.145 306.498L678.831 305.382C675.842 304.76 673.631 303.712 672.197 302.238C670.764 300.75 670.054 298.871 670.068 296.599C670.054 294.678 670.575 293.015 671.629 291.609C672.698 290.189 674.179 289.093 676.072 288.323C677.979 287.538 680.176 287.146 682.664 287.146C686.316 287.146 689.189 287.924 691.286 289.479C693.395 291.034 694.7 293.137 695.2 295.787Z" fill="#0D47A1"/>
<path d="M664.888 287.552V293.232H646.977V287.552H664.888ZM651.399 280.087H658.742V309.338C658.742 310.325 658.891 311.083 659.188 311.61C659.499 312.124 659.905 312.475 660.405 312.665C660.905 312.854 661.46 312.949 662.068 312.949C662.528 312.949 662.947 312.915 663.326 312.847C663.718 312.78 664.016 312.719 664.219 312.665L665.456 318.405C665.064 318.541 664.503 318.689 663.772 318.852C663.056 319.014 662.177 319.109 661.135 319.136C659.296 319.19 657.64 318.913 656.166 318.304C654.692 317.682 653.522 316.722 652.656 315.424C651.804 314.125 651.385 312.503 651.399 310.555V280.087Z" fill="#0D47A1"/>
<path d="M625.489 319.338C623.515 319.338 621.736 318.986 620.154 318.283C618.585 317.566 617.341 316.512 616.422 315.119C615.516 313.726 615.062 312.008 615.062 309.966C615.062 308.208 615.387 306.755 616.036 305.605C616.685 304.456 617.571 303.536 618.693 302.846C619.816 302.157 621.08 301.636 622.487 301.285C623.907 300.919 625.374 300.656 626.889 300.493C628.714 300.304 630.195 300.135 631.331 299.986C632.467 299.824 633.292 299.581 633.806 299.256C634.333 298.918 634.597 298.397 634.597 297.694V297.572C634.597 296.044 634.144 294.861 633.238 294.023C632.332 293.184 631.027 292.765 629.323 292.765C627.524 292.765 626.097 293.157 625.043 293.941C624.001 294.726 623.298 295.652 622.933 296.72L616.077 295.747C616.618 293.854 617.51 292.271 618.754 291C619.998 289.715 621.52 288.755 623.318 288.12C625.117 287.471 627.105 287.146 629.282 287.146C630.783 287.146 632.278 287.322 633.765 287.673C635.253 288.025 636.612 288.607 637.842 289.418C639.073 290.216 640.06 291.304 640.804 292.684C641.561 294.063 641.94 295.787 641.94 297.856V318.709H634.881V314.429H634.637C634.191 315.295 633.562 316.106 632.751 316.863C631.953 317.607 630.946 318.209 629.728 318.669C628.525 319.115 627.112 319.338 625.489 319.338ZM627.396 313.942C628.87 313.942 630.148 313.651 631.229 313.07C632.311 312.475 633.143 311.691 633.725 310.717C634.32 309.743 634.617 308.682 634.617 307.532V303.861C634.387 304.05 633.995 304.226 633.441 304.388C632.9 304.55 632.291 304.692 631.615 304.814C630.939 304.936 630.269 305.044 629.607 305.139C628.944 305.233 628.369 305.314 627.882 305.382C626.787 305.531 625.807 305.774 624.941 306.112C624.076 306.45 623.393 306.924 622.892 307.532C622.392 308.127 622.142 308.898 622.142 309.845C622.142 311.197 622.635 312.218 623.623 312.908C624.61 313.597 625.868 313.942 627.396 313.942Z" fill="#0D47A1"/>
<path d="M612.321 287.552L601.225 318.71H593.111L582.016 287.552H589.846L597.006 310.697H597.331L604.511 287.552H612.321Z" fill="#0D47A1"/>
<path d="M560.914 318.71V287.553H568.034V292.746H568.359C568.927 290.947 569.9 289.561 571.28 288.587C572.673 287.6 574.261 287.106 576.047 287.106C576.452 287.106 576.905 287.127 577.406 287.167C577.92 287.194 578.345 287.242 578.684 287.309V294.064C578.373 293.956 577.879 293.861 577.203 293.78C576.54 293.685 575.898 293.638 575.276 293.638C573.937 293.638 572.733 293.929 571.665 294.51C570.61 295.078 569.779 295.869 569.17 296.884C568.561 297.898 568.257 299.068 568.257 300.393V318.71H560.914Z" fill="#0D47A1"/>
<path d="M518.711 318.71V277.167H526.237V294.754H545.487V277.167H553.033V318.71H545.487V301.063H526.237V318.71H518.711Z" fill="#0D47A1"/>
<path d="M484.148 319.318C481.024 319.318 478.326 318.669 476.054 317.37C473.796 316.059 472.058 314.206 470.841 311.812C469.624 309.405 469.016 306.572 469.016 303.313C469.016 300.108 469.624 297.295 470.841 294.875C472.072 292.44 473.789 290.547 475.994 289.195C478.198 287.829 480.788 287.146 483.763 287.146C485.683 287.146 487.495 287.457 489.199 288.079C490.916 288.688 492.431 289.634 493.743 290.919C495.068 292.204 496.109 293.84 496.867 295.828C497.624 297.802 498.003 300.155 498.003 302.887V305.139H472.464V300.189H490.964C490.95 298.783 490.646 297.532 490.051 296.436C489.456 295.328 488.624 294.455 487.556 293.82C486.501 293.184 485.271 292.866 483.864 292.866C482.363 292.866 481.045 293.231 479.909 293.962C478.773 294.678 477.887 295.625 477.251 296.802C476.629 297.965 476.311 299.243 476.298 300.635V304.956C476.298 306.768 476.629 308.323 477.292 309.622C477.954 310.906 478.881 311.893 480.071 312.583C481.261 313.259 482.654 313.597 484.25 313.597C485.318 313.597 486.285 313.449 487.15 313.151C488.016 312.84 488.766 312.387 489.402 311.792C490.037 311.197 490.518 310.46 490.842 309.581L497.698 310.352C497.266 312.164 496.441 313.746 495.224 315.098C494.02 316.437 492.478 317.479 490.599 318.222C488.719 318.953 486.569 319.318 484.148 319.318Z" fill="#0D47A1"/>
<path d="M450.977 319.318C447.866 319.318 445.195 318.635 442.964 317.269C440.746 315.903 439.036 314.017 437.832 311.609C436.642 309.189 436.047 306.403 436.047 303.252C436.047 300.088 436.655 297.295 437.873 294.875C439.09 292.44 440.807 290.547 443.025 289.195C445.256 287.829 447.893 287.146 450.936 287.146C453.465 287.146 455.703 287.613 457.65 288.546C459.611 289.465 461.173 290.77 462.336 292.461C463.499 294.137 464.162 296.098 464.324 298.343H457.305C457.021 296.842 456.345 295.591 455.277 294.591C454.222 293.576 452.809 293.069 451.037 293.069C449.536 293.069 448.218 293.475 447.082 294.286C445.946 295.084 445.06 296.234 444.425 297.735C443.802 299.236 443.491 301.034 443.491 303.13C443.491 305.254 443.802 307.079 444.425 308.607C445.047 310.122 445.919 311.292 447.041 312.117C448.177 312.928 449.509 313.334 451.037 313.334C452.119 313.334 453.086 313.131 453.938 312.725C454.804 312.306 455.527 311.704 456.109 310.92C456.69 310.135 457.089 309.182 457.305 308.06H464.324C464.148 310.264 463.499 312.218 462.377 313.922C461.254 315.612 459.726 316.938 457.792 317.898C455.858 318.844 453.586 319.318 450.977 319.318Z" fill="#0D47A1"/>
<path d="M416.031 318.71V287.553H423.151V292.746H423.476C424.044 290.947 425.017 289.561 426.397 288.587C427.79 287.6 429.379 287.106 431.164 287.106C431.569 287.106 432.022 287.127 432.523 287.167C433.037 287.194 433.463 287.242 433.801 287.309V294.064C433.49 293.956 432.996 293.861 432.32 293.78C431.657 293.685 431.015 293.638 430.393 293.638C429.054 293.638 427.851 293.929 426.782 294.51C425.727 295.078 424.896 295.869 424.287 296.884C423.679 297.898 423.374 299.068 423.374 300.393V318.71H416.031Z" fill="#0D47A1"/>
<path d="M395.976 319.318C392.852 319.318 390.154 318.669 387.883 317.37C385.624 316.059 383.886 314.206 382.669 311.812C381.452 309.405 380.844 306.572 380.844 303.313C380.844 300.108 381.452 297.295 382.669 294.875C383.9 292.44 385.617 290.547 387.822 289.195C390.026 287.829 392.616 287.146 395.591 287.146C397.511 287.146 399.323 287.457 401.027 288.079C402.745 288.688 404.259 289.634 405.571 290.919C406.896 292.204 407.937 293.84 408.695 295.828C409.452 297.802 409.831 300.155 409.831 302.887V305.139H384.292V300.189H402.792C402.778 298.783 402.474 297.532 401.879 296.436C401.284 295.328 400.452 294.455 399.384 293.82C398.329 293.184 397.099 292.866 395.692 292.866C394.191 292.866 392.873 293.231 391.737 293.962C390.601 294.678 389.715 295.625 389.079 296.802C388.457 297.965 388.14 299.243 388.126 300.635V304.956C388.126 306.768 388.457 308.323 389.12 309.622C389.783 310.906 390.709 311.893 391.899 312.583C393.089 313.259 394.482 313.597 396.078 313.597C397.146 313.597 398.113 313.449 398.978 313.151C399.844 312.84 400.594 312.387 401.23 311.792C401.866 311.197 402.346 310.46 402.67 309.581L409.526 310.352C409.094 312.164 408.269 313.746 407.052 315.098C405.848 316.437 404.307 317.479 402.427 318.222C400.547 318.953 398.397 319.318 395.976 319.318Z" fill="#0D47A1"/>
<path d="M330.891 318.709V287.552H337.909V292.846H338.274C338.923 291.061 339.998 289.668 341.5 288.667C343.001 287.653 344.792 287.146 346.875 287.146C348.985 287.146 350.763 287.66 352.21 288.688C353.67 289.702 354.698 291.088 355.293 292.846H355.618C356.307 291.115 357.47 289.736 359.107 288.708C360.757 287.667 362.711 287.146 364.969 287.146C367.836 287.146 370.176 288.052 371.988 289.864C373.8 291.676 374.706 294.32 374.706 297.796V318.709H367.342V298.931C367.342 296.998 366.829 295.584 365.801 294.692C364.773 293.786 363.515 293.333 362.028 293.333C360.256 293.333 358.87 293.887 357.869 294.996C356.882 296.092 356.389 297.518 356.389 299.276V318.709H349.188V298.627C349.188 297.018 348.701 295.733 347.727 294.773C346.767 293.813 345.509 293.333 343.954 293.333C342.899 293.333 341.939 293.603 341.074 294.144C340.208 294.672 339.518 295.422 339.005 296.396C338.491 297.356 338.234 298.478 338.234 299.763V318.709H330.891Z" fill="#0D47A1"/>
<path d="M279.641 318.709V287.552H286.659V292.846H287.024C287.673 291.061 288.749 289.668 290.25 288.667C291.751 287.653 293.542 287.146 295.625 287.146C297.735 287.146 299.513 287.66 300.96 288.688C302.42 289.702 303.448 291.088 304.043 292.846H304.368C305.057 291.115 306.22 289.736 307.857 288.708C309.507 287.667 311.461 287.146 313.719 287.146C316.586 287.146 318.926 288.052 320.738 289.864C322.55 291.676 323.456 294.32 323.456 297.796V318.709H316.092V298.931C316.092 296.998 315.579 295.584 314.551 294.692C313.523 293.786 312.265 293.333 310.778 293.333C309.006 293.333 307.62 293.887 306.619 294.996C305.632 296.092 305.139 297.518 305.139 299.276V318.709H297.938V298.627C297.938 297.018 297.451 295.733 296.477 294.773C295.517 293.813 294.259 293.333 292.704 293.333C291.649 293.333 290.689 293.603 289.824 294.144C288.958 294.672 288.268 295.422 287.755 296.396C287.241 297.356 286.984 298.478 286.984 299.763V318.709H279.641Z" fill="#0D47A1"/>
<path d="M258.477 319.318C255.434 319.318 252.797 318.648 250.565 317.31C248.334 315.971 246.603 314.098 245.373 311.691C244.155 309.283 243.547 306.471 243.547 303.252C243.547 300.034 244.155 297.214 245.373 294.793C246.603 292.373 248.334 290.493 250.565 289.154C252.797 287.815 255.434 287.146 258.477 287.146C261.519 287.146 264.156 287.815 266.388 289.154C268.619 290.493 270.343 292.373 271.56 294.793C272.791 297.214 273.406 300.034 273.406 303.252C273.406 306.471 272.791 309.283 271.56 311.691C270.343 314.098 268.619 315.971 266.388 317.31C264.156 318.648 261.519 319.318 258.477 319.318ZM258.517 313.435C260.167 313.435 261.546 312.982 262.655 312.076C263.764 311.156 264.589 309.926 265.13 308.384C265.684 306.843 265.962 305.125 265.962 303.232C265.962 301.325 265.684 299.601 265.13 298.059C264.589 296.504 263.764 295.267 262.655 294.347C261.546 293.428 260.167 292.968 258.517 292.968C256.827 292.968 255.42 293.428 254.298 294.347C253.189 295.267 252.357 296.504 251.803 298.059C251.262 299.601 250.991 301.325 250.991 303.232C250.991 305.125 251.262 306.843 251.803 308.384C252.357 309.926 253.189 311.156 254.298 312.076C255.42 312.982 256.827 313.435 258.517 313.435Z" fill="#0D47A1"/>
<path d="M238.309 291.184H230.723C230.507 289.94 230.108 288.838 229.526 287.877C228.945 286.904 228.221 286.079 227.356 285.403C226.49 284.727 225.503 284.219 224.394 283.881C223.299 283.53 222.115 283.354 220.844 283.354C218.586 283.354 216.584 283.922 214.84 285.058C213.095 286.18 211.73 287.83 210.742 290.007C209.755 292.171 209.262 294.815 209.262 297.939C209.262 301.117 209.755 303.794 210.742 305.972C211.743 308.135 213.109 309.772 214.84 310.88C216.584 311.976 218.579 312.524 220.824 312.524C222.068 312.524 223.231 312.361 224.313 312.037C225.408 311.699 226.389 311.205 227.254 310.556C228.133 309.907 228.87 309.109 229.465 308.162C230.074 307.216 230.493 306.134 230.723 304.917L238.309 304.957C238.025 306.932 237.41 308.784 236.463 310.515C235.53 312.246 234.307 313.774 232.792 315.1C231.277 316.411 229.506 317.439 227.477 318.183C225.449 318.913 223.197 319.278 220.722 319.278C217.071 319.278 213.812 318.433 210.945 316.743C208.078 315.052 205.82 312.611 204.17 309.42C202.52 306.228 201.695 302.401 201.695 297.939C201.695 293.463 202.527 289.635 204.19 286.458C205.854 283.266 208.119 280.825 210.986 279.135C213.853 277.444 217.098 276.599 220.722 276.599C223.035 276.599 225.185 276.924 227.173 277.573C229.161 278.222 230.932 279.175 232.488 280.433C234.043 281.677 235.321 283.205 236.321 285.017C237.336 286.816 237.998 288.871 238.309 291.184Z" fill="#0D47A1"/>
<path d="M182.375 319.318C179.251 319.318 176.553 318.669 174.281 317.37C172.023 316.059 170.285 314.206 169.068 311.812C167.851 309.405 167.242 306.572 167.242 303.313C167.242 300.108 167.851 297.295 169.068 294.875C170.298 292.44 172.016 290.547 174.22 289.195C176.424 287.829 179.014 287.146 181.989 287.146C183.91 287.146 185.722 287.457 187.426 288.079C189.143 288.688 190.658 289.634 191.969 290.919C193.295 292.204 194.336 293.84 195.093 295.828C195.851 297.802 196.229 300.155 196.229 302.887V305.139H170.691V300.189H189.19C189.177 298.783 188.873 297.532 188.278 296.436C187.683 295.328 186.851 294.455 185.783 293.82C184.728 293.184 183.497 292.866 182.091 292.866C180.59 292.866 179.271 293.231 178.135 293.962C176.999 294.678 176.113 295.625 175.478 296.802C174.856 297.965 174.538 299.243 174.524 300.635V304.956C174.524 306.768 174.856 308.323 175.518 309.622C176.181 310.906 177.107 311.893 178.297 312.583C179.487 313.259 180.88 313.597 182.476 313.597C183.544 313.597 184.511 313.449 185.377 313.151C186.242 312.84 186.993 312.387 187.628 311.792C188.264 311.197 188.744 310.46 189.069 309.581L195.925 310.352C195.492 312.164 194.667 313.746 193.45 315.098C192.247 316.437 190.705 317.479 188.825 318.222C186.946 318.953 184.795 319.318 182.375 319.318Z" fill="#0D47A1"/>
</svg>
