<svg width="36" height="36" viewBox="0 0 36 36" fill="none" xmlns="http://www.w3.org/2000/svg">
<g id="clarity:avatar-solid">
<path id="Vector" d="M29.5 31.5H6.5V25.5318C6.50018 25.5301 6.50079 25.5284 6.50178 25.527C7.96636 23.9431 9.74245 22.6787 11.7187 21.8134C13.6993 20.9462 15.8379 20.4984 18 20.4984C20.1621 20.4984 22.3007 20.9462 24.2813 21.8134C26.2577 22.6788 28.0339 23.9432 29.4985 25.5274C29.4992 25.5283 29.4997 25.5294 29.5 25.5305V31.5Z" stroke="black" stroke-width="3"/>
<path id="Vector_2" d="M23.5 10C23.5 13.0376 21.0376 15.5 18 15.5C14.9624 15.5 12.5 13.0376 12.5 10C12.5 6.96243 14.9624 4.5 18 4.5C21.0376 4.5 23.5 6.96243 23.5 10Z" stroke="black" stroke-width="3"/>
</g>
</svg>
