<svg width="19" height="19" viewBox="0 0 19 19" fill="none" xmlns="http://www.w3.org/2000/svg">
<path d="M18.747 17.5257L12.8584 11.637C13.8202 10.4132 14.3946 8.8711 14.3946 7.19732C14.3946 3.22868 11.1659 0 7.19727 0C3.22868 0 0 3.22868 0 7.19726C0 11.1658 3.22868 14.3945 7.19727 14.3945C8.871 14.3945 10.4132 13.8202 11.637 12.8583L17.5257 18.747C17.6943 18.9157 17.9154 19 18.1364 19C18.3574 19 18.5785 18.9157 18.747 18.747C19.0843 18.4098 19.0843 17.8629 18.747 17.5257ZM1.72728 7.19726C1.72728 4.18109 4.1811 1.72727 7.19727 1.72727C10.2134 1.72727 12.6673 4.18109 12.6673 7.19726C12.6673 10.2134 10.2134 12.6672 7.19727 12.6672C4.1811 12.6672 1.72728 10.2134 1.72728 7.19726Z" fill="url(#paint0_linear_1311_1596)"/>
<defs>
<linearGradient id="paint0_linear_1311_1596" x1="19" y1="19" x2="0" y2="0" gradientUnits="userSpaceOnUse">
<stop stop-color="#325981"/>
<stop offset="1" stop-color="#5083C1"/>
</linearGradient>
</defs>
</svg>
